<svg width="11" height="15" viewBox="0 0 11 15" fill="none" xmlns="http://www.w3.org/2000/svg">
<path d="M5.3049 0.000854492C2.38797 0.000854492 0.0148926 2.37394 0.0148926 5.29083C0.0148926 8.91079 4.74893 14.2251 4.95049 14.4496C5.1398 14.6604 5.47034 14.6601 5.65931 14.4496C5.86087 14.2251 10.5949 8.91079 10.5949 5.29083C10.5948 2.37394 8.2218 0.000854492 5.3049 0.000854492ZM5.3049 7.95237C3.83732 7.95237 2.64339 6.75841 2.64339 5.29083C2.64339 3.82326 3.83735 2.62933 5.3049 2.62933C6.77245 2.62933 7.96638 3.82328 7.96638 5.29086C7.96638 6.75844 6.77245 7.95237 5.3049 7.95237Z" fill="white"/>
</svg>
